# xmcd CD database file
#
# Track frame offsets:
#	150
#	20880
#	32802
#	49567
#	60685
#	62520
#	78987
#	94800
#	109085
#	124050
#	144945
#	146180
#	179325
#	197342
#	204577
#	225682
#
# Disc length: 3208 seconds
#
# Revision: 0
# Processed by: cddbd v1.5.1PL2 Copyright (c) Steve Scherf et al.
# Submitted via: CD2WAV32(JP) R3.22
#
DISCID=df0c8610
DTITLE=小野瀬雅生 - 小野瀬雅生ショウ
DYEAR=2000
DGENRE=New Age
TTITLE0=TURN ME ON
TTITLE1=MOTTO WASABI
TTITLE2=世界の半魚人　Part II
TTITLE3=チーズ・バーガー・パトロール
TTITLE4=M.C.C.K
TTITLE5=クレイジー・ピロシキ・No.1
TTITLE6=アンスリウム
TTITLE7=熱海マル・ダムール
TTITLE8=プラムのしずく
TTITLE9=The Land Of Sleeping Waters
TTITLE10=M.C.C.K
TTITLE11=Destroy All Monsters
TTITLE12=リュウグウノツカイ
TTITLE13=クレイジー・ピロシキ・No.2
TTITLE14=悲しき宇宙人
TTITLE15=おんぼろロケットの漂着
EXTD=
EXTT0=
EXTT1=
EXTT2=
EXTT3=
EXTT4=
EXTT5=
EXTT6=
EXTT7=
EXTT8=
EXTT9=
EXTT10=
EXTT11=
EXTT12=
EXTT13=
EXTT14=
EXTT15=
PLAYORDER=
